<?xml version="1.0" encoding="utf-8"?>
<!-- Generator: Adobe Illustrator 28.3.0, SVG Export Plug-In . SVG Version: 6.00 Build 0)  -->
<svg version="1.1" id="Layer_1" xmlns="http://www.w3.org/2000/svg" xmlns:xlink="http://www.w3.org/1999/xlink" x="0px" y="0px"
	 viewBox="0 0 240 234" style="enable-background:new 0 0 240 234;" xml:space="preserve">
<style type="text/css">
	.st0{fill:#FFFFFF;}
</style>
<g>
	<path class="st0" d="M185.7,102.4c-3.9,0-7.8,0.8-11.3,2.6c-3.4,1.7-6.3,4.2-8.5,7.4c-2.2,3.2-3.3,7.5-3.3,12.7
		c-0.1,3.5,0.5,7,1.7,10.3c1,2.7,2.5,5.1,4.5,7.1c1.9,1.8,4.2,3.2,6.8,4c2.7,0.9,5.5,1.3,8.3,1.3c1.5,0,2.9-0.1,4.2-0.2
		c1.2-0.1,2.4-0.3,3.5-0.6v-44c-0.9-0.2-1.8-0.4-2.7-0.5C187.9,102.5,186.8,102.4,185.7,102.4z"/>
	<path class="st0" d="M197.5,0h-155C19,0,0,19,0,42.5v149C0,215,19,234,42.5,234h155c23.5,0,42.5-19,42.5-42.5v-149
		C240,19,221,0,197.5,0z M133.8,165c-0.3,0.3-0.6,0.4-1,0.4H113c-0.3,0-0.5-0.1-0.8-0.2c-0.2-0.2-0.3-0.6-0.3-0.9
		c0-5.5,0-11.2-0.1-17.2c-0.1-6-0.1-12-0.2-18.1c-0.1-6.1-0.1-11.9,0-17.5c0.1-5.6,0.2-10.7,0.2-15.5c0-4.7,0-8.8,0.1-12.3
		c0.1-3.5,0.1-6.1,0.1-7.8h-0.2c-0.6,2.7-1.4,6.2-2.4,10.5c-1,4.3-2.2,9.2-3.6,14.7c-1.4,5.4-2.9,11-4.4,16.8
		c-1.6,5.8-3.1,11.5-4.6,17.2c-1.5,5.7-2.9,11-4.3,15.9c-1.4,4.9-2.5,9.3-3.4,13c-0.2,0.8-0.9,1.3-1.7,1.3H70
		c-0.9,0.1-1.7-0.4-1.8-1.3c-0.9-3.8-2-8.1-3.1-13c-1.2-4.9-2.4-10.1-3.6-15.5c-1.2-5.4-2.5-10.9-3.9-16.5
		c-1.4-5.6-2.7-11.1-3.9-16.3c-1.2-5.3-2.3-10.2-3.3-14.8c-1-4.6-1.9-8.7-2.7-12.2h-0.3v12.7c0,4.9-0.1,10.4-0.2,16.3
		c-0.2,6-0.3,12.2-0.5,18.7c-0.2,6.5-0.3,13.2-0.5,20.1c-0.2,6.9-0.5,13.8-0.8,20.5c0,0.9-0.4,1.3-1.2,1.3H26.4
		c-0.3,0-0.7-0.1-1-0.2c-0.3-0.2-0.3-0.6-0.2-1.2l5.5-103c0.1-0.6,0.6-1,1.2-1c0,0,0,0,0,0H60c0.8-0.1,1.5,0.4,1.7,1.1
		c0.7,2.8,1.6,6.1,2.6,10.1c1,3.9,2.1,8.2,3.3,13c1.2,4.7,2.4,9.6,3.6,14.5c1.2,4.9,2.4,9.7,3.6,14.4c1.2,4.7,2.2,9,3,12.9
		c0.8,3.9,1.5,7.2,2,9.7h0.2c0.4-2.3,1.1-5.3,2.1-9c1-3.8,2.2-8,3.5-12.6c1.3-4.7,2.7-9.5,4.1-14.4c1.4-4.9,2.7-9.8,4.1-14.7
		c1.3-4.8,2.6-9.3,3.7-13.4c1.2-4.1,2.1-7.6,2.8-10.4c0.1-0.7,0.7-1.2,1.4-1.1H129c0.7-0.1,1.3,0.4,1.4,1c0,0,0,0.1,0,0.1l3.7,102.9
		C134.2,164.3,134.1,164.7,133.8,165z M213.5,160.7c-5.2,2.2-10.7,3.8-16.3,4.8c-5.1,0.9-10.3,1.4-15.5,1.4
		c-7.4,0.1-14.8-1.4-21.5-4.5c-6.3-2.9-11.5-7.7-15.1-13.6c-3.7-6.1-5.5-13.7-5.5-22.8c-0.1-7.4,1.8-14.7,5.5-21.1
		c3.8-6.5,9.3-11.9,15.9-15.5c7-3.9,15.4-5.8,25.3-5.8c0.5,0,1.2,0,2.1,0.1c0.9,0.1,1.9,0.1,3.1,0.2V52.4c0-0.7,0.3-1.1,1-1.1h20.3
		c0.5-0.1,0.9,0.3,1,0.7c0,0.1,0,0.2,0,0.2v95.2c0,1.8,0.1,3.8,0.2,6c0.2,2.1,0.3,4.1,0.4,5.8C214.5,159.8,214.1,160.4,213.5,160.7z
		"/>
</g>
</svg>
