<?xml version="1.0" encoding="utf-8"?>
<!-- Generator: Adobe Illustrator 28.3.0, SVG Export Plug-In . SVG Version: 6.00 Build 0)  -->
<svg version="1.1" id="Layer_1" xmlns="http://www.w3.org/2000/svg" xmlns:xlink="http://www.w3.org/1999/xlink" x="0px" y="0px"
	 viewBox="0 0 112 108" style="enable-background:new 0 0 112 108;" xml:space="preserve">
<g>
	<path d="M69,53.7c1,1.1,2.5,1.7,4,1.6c1.4,0.1,2.8-0.4,3.9-1.4c1-1,1.5-2.3,1.4-3.7c0-0.9-0.2-1.9-0.6-2.7c-0.4-0.8-1-1.5-1.7-1.9
		c-0.9-0.5-2-0.8-3-0.7c-1.4-0.1-2.8,0.4-3.9,1.4c-1,1.1-1.5,2.5-1.4,4C67.6,51.4,68.1,52.7,69,53.7z"/>
	<path d="M80.6,76.2c-1.3-0.2-2.6-0.4-3.9-0.4l-8.4-0.4c-0.8,0.5-1.6,1.3-2.1,2.1c-0.4,0.6-0.7,1.3-0.8,2c0,0.9,0.4,1.7,1,2.3
		c0.9,0.9,2,1.5,3.2,1.9c1.6,0.5,3.3,0.8,5,0.7c1.9,0.1,3.7-0.2,5.5-0.7c1.2-0.3,2.2-0.9,3.1-1.8c0.6-0.6,1-1.5,1-2.4
		c0.1-0.9-0.3-1.7-1-2.2C82.5,76.7,81.6,76.3,80.6,76.2z"/>
	<path d="M92.1,0H19.9C8.9,0,0,8.9,0,19.9v68.2c0,11,8.9,19.9,19.9,19.9h72.2c11,0,19.9-8.9,19.9-19.9V19.9C112,8.9,103.1,0,92.1,0z
		 M51.3,69.4c-1.7,2.3-4,4.1-6.6,5.2c-3.2,1.3-6.6,1.9-10,1.8c-2.6,0-5.2-0.2-7.7-0.7c-2-0.4-4-1-5.8-1.9c-0.4-0.3-0.7-0.8-0.6-1.3
		v-9c0-0.2,0.1-0.3,0.2-0.4c0.2-0.1,0.3-0.1,0.5,0c2.1,1.3,4.4,2.3,6.8,3c2.3,0.6,4.6,1,7,1c2.9,0,5-0.4,6.2-1.3
		c1.1-0.7,1.8-2,1.9-3.3c0-0.8-0.2-1.6-0.6-2.3c-0.5-0.8-1.3-1.5-2.1-2c-1.3-0.8-2.7-1.5-4.2-2.1l-3.8-1.6c-2.6-1-5.1-2.5-7.3-4.2
		c-1.6-1.3-2.8-2.9-3.6-4.8c-0.7-1.8-1-3.7-1-5.5c-0.1-5.5,3.1-10.5,8.1-12.7c3.2-1.4,6.6-2,10-1.9c2.3,0,4.5,0.1,6.8,0.5
		c1.8,0.2,3.5,0.7,5.1,1.4c0.4,0.2,0.6,0.6,0.5,1c0,0.1,0,0.2,0,0.2c0,0.2,0,0.4,0,0.7c0,0.3,0,0.6,0,1c0,0.4,0,0.8,0,1.2
		c0,0.4,0,0.9,0,1.3c0,0.4,0,0.9,0,1.3c0,0.4,0,0.8,0,1.2c0,0.3,0,0.6,0,1c0,0.2,0,0.4,0,0.6c0,0.1,0,0.2,0,0.3
		c0,0.1-0.1,0.2-0.3,0.3c-0.2,0-0.3-0.1-0.5-0.1c-0.2-0.1-0.3-0.2-0.5-0.3c-0.4-0.2-0.7-0.3-1.1-0.5c-0.7-0.3-1.5-0.5-2.2-0.8
		c-0.5-0.1-1-0.3-1.4-0.4c-2.1-0.5-4.2-0.7-6.3-0.7c-1.3,0-2.5,0.1-3.7,0.4c-0.9,0.2-1.7,0.5-2.5,1c-0.6,0.3-1.1,0.8-1.4,1.4
		c-0.3,0.5-0.5,1.2-0.5,1.8c0,0.8,0.2,1.5,0.7,2.2c0.6,0.8,1.4,1.4,2.3,1.9c1.4,0.8,2.9,1.6,4.4,2.2l2.8,1.1
		c2.8,1.1,5.4,2.5,7.8,4.4c1.7,1.3,3.1,3,4,5c0.8,1.8,1.2,3.8,1.1,5.8C53.8,64.4,52.9,67.1,51.3,69.4z M91.5,85
		c-1.8,2.3-4.2,4.1-6.9,5.2c-3.4,1.3-7,2-10.6,1.9c-3.6,0.1-7.1-0.5-10.4-1.8c-2.4-0.9-4.5-2.5-6-4.5c-1.2-1.6-1.8-3.4-1.9-5.4
		c0-0.9,0.3-1.8,0.7-2.6c0.6-1.1,1.3-2.2,2.2-3.1c1.2-1.4,2.5-2.6,3.9-3.8c0.1-0.1,0.2-0.2,0.3-0.2c-0.3-0.6-0.7-1.1-0.9-1.7
		c-0.5-1.2-0.7-2.6-0.6-3.9c0-1.1,0.2-2.2,0.6-3.2c0.2-0.6,0.5-1.2,0.8-1.8c-0.1,0-0.1-0.1-0.2-0.1c-1.5-1-2.8-2.3-3.7-3.9
		c-1-1.8-1.4-3.8-1.4-5.9c0-2.3,0.6-4.6,1.8-6.5c1.3-2,3.1-3.7,5.3-4.7c2.6-1.2,5.5-1.8,8.4-1.7c1.4,0,2.7,0.1,4,0.2
		s2.4,0.3,3.2,0.4c0.4,0.1,0.7,0.1,1,0.1c0.3,0,0.6,0,0.8,0h10.4c0.3,0,0.5,0.2,0.5,0.5v7.1c0.1,0.2-0.1,0.5-0.3,0.5
		c-0.1,0-0.1,0-0.2,0c-0.5,0-1.3,0-2.4-0.1c-1.1-0.1-2-0.2-2.9-0.3c0.3,0.6,0.6,1.3,0.8,2c0.2,0.9,0.4,1.9,0.3,2.9
		c0.1,2.4-0.6,4.8-1.9,6.8c-1.3,1.8-3.2,3.2-5.4,4c-2.5,0.9-5.1,1.4-7.7,1.3c-0.8,0-1.7,0-2.5-0.1c-0.1,0.2-0.1,0.4-0.1,0.7
		c-0.1,0.5-0.1,0.9,0,1.4c0,0.5,0.1,1,0.4,1.4c0.1,0.2,0.2,0.3,0.4,0.5l7.8,0.4c3,0,6,0.6,8.7,1.7c1.9,0.8,3.6,2.1,4.7,3.9
		c1,1.6,1.5,3.5,1.4,5.4C94,80.5,93.1,83,91.5,85z"/>
</g>
</svg>
