<?xml version="1.0" encoding="utf-8"?>
<!-- Generator: Adobe Illustrator 28.3.0, SVG Export Plug-In . SVG Version: 6.00 Build 0)  -->
<svg version="1.1" id="Layer_1" xmlns="http://www.w3.org/2000/svg" xmlns:xlink="http://www.w3.org/1999/xlink" x="0px" y="0px"
	 viewBox="0 0 240 234" style="enable-background:new 0 0 240 234;" xml:space="preserve">
<style type="text/css">
	.st0{fill:#FFFFFF;}
</style>
<g>
	<path class="st0" d="M165.2,130.4c-5.8,0-9.9,0.9-12.3,2.6c-2.3,1.6-3.7,4.3-3.6,7.1c0,1.7,0.5,3.3,1.4,4.7
		c1.1,1.6,2.7,2.8,4.5,3.5c2.5,1,5.2,1.5,8,1.4c1.8,0,3.7-0.1,5.5-0.4c1.4-0.3,3-0.7,4.5-1.1v-17.1c-1.3-0.2-2.5-0.4-3.7-0.5
		C168.3,130.5,166.9,130.4,165.2,130.4z"/>
	<path class="st0" d="M197.5,0h-155C19,0,0,19,0,42.5v149C0,215,19,234,42.5,234h155c23.5,0,42.5-19,42.5-42.5v-149
		C240,19,221,0,197.5,0z M110.1,152.3c-3.6,4.9-8.5,8.7-14.1,11c-5.6,2.4-12.7,3.7-20.9,3.7c-5.5,0.1-11-0.5-16.3-1.5
		c-4.2-0.8-8.4-2.1-12.3-3.9c-0.9-0.4-1.3-1.3-1.3-2.7v-19.2c0-0.3,0.1-0.7,0.4-0.9c0.3-0.2,0.7-0.1,1,0.1c4.5,2.8,9.3,4.9,14.3,6.3
		c4.8,1.4,9.8,2.1,14.8,2.1c6.1,0,10.5-0.9,13.1-2.8c2.4-1.5,3.9-4.1,3.9-7c0-1.7-0.4-3.4-1.3-4.9c-1.2-1.7-2.7-3.2-4.5-4.3
		c-2.8-1.7-5.8-3.2-8.9-4.3l-8-3.4c-6.5-2.8-11.7-5.8-15.4-8.9c-3.4-2.7-6-6.2-7.6-10.2c-1.4-3.8-2.1-7.7-2.1-11.8
		c-0.2-11.6,6.6-22.3,17.2-27c5.7-2.7,12.8-4.1,21.3-4.1c4.8,0,9.6,0.3,14.4,1c3.7,0.4,7.3,1.5,10.7,3.1c0.7,0.4,1.2,1.2,1.1,2.1V83
		c0,0.3-0.2,0.6-0.5,0.8c-0.4,0.2-0.8-0.1-1.1-0.2c-0.6-0.3-1.2-0.6-1.8-0.9c-1.2-0.5-2.4-1-3.7-1.5c-1.2-0.4-2.5-0.8-3.8-1.2
		c-0.6-0.2-1.3-0.3-1.9-0.5c-4.4-1-8.9-1.5-13.4-1.4c-2.7,0-5.3,0.2-7.9,0.8c-1.8,0.4-3.6,1.1-5.2,2c-1.3,0.7-2.3,1.8-3,3.1
		c-0.6,1.2-1,2.5-1,3.8c0,1.6,0.5,3.3,1.4,4.6c1.3,1.7,3,3,4.8,4c3,1.7,6.1,3.3,9.3,4.7l6,2.3c7.1,2.9,12.6,6,16.6,9.3
		c3.6,2.8,6.5,6.5,8.4,10.6c1.6,3.9,2.4,8.1,2.4,12.3C115.3,141.6,113.5,147.4,110.1,152.3z M194.9,159.8c-4.8,1.8-9.1,3.3-12.9,4.3
		c-3.6,1-7.2,1.8-10.9,2.3c-3.7,0.4-7.5,0.7-11.3,0.6c-5.6,0.1-11.1-0.9-16.3-2.9c-4.7-1.8-8.8-4.9-11.8-8.9s-4.5-9-4.5-15.1
		c0-5.8,1.6-10.6,4.7-14.5c3.4-4,7.9-7.1,13-8.7c6.1-2,12.4-3,18.8-2.9h5.9c1.2,0,2.4,0,3.6,0.2v-1c-0.1-1-0.2-1.9-0.6-2.8
		c-0.4-1.3-1.2-2.5-2.2-3.5c-1.3-1.2-2.9-2.1-4.6-2.7c-2.6-0.8-5.3-1.1-8-1c-3.9,0-7.8,0.3-11.6,1.1c-3.4,0.7-6.7,1.7-9.8,3.1
		c-0.3,0.1-0.7,0.1-1,0c-0.3-0.1-0.5-0.5-0.5-0.8V90.4c-0.1-0.8,0.4-1.5,1.1-1.8c3.8-1.7,7.9-2.9,12-3.6c4.5-0.8,8.9-1.2,13.3-1.2
		c7.9,0,14.4,1.4,19.2,4.3c4.7,2.7,8.5,6.8,10.9,11.8c2.4,5.2,3.6,10.9,3.5,16.6v31.1c0,2,0,4,0.1,5.8c0.1,1.8,0.1,3.7,0.2,5.6
		C195.2,159.4,195.1,159.7,194.9,159.8z"/>
</g>
</svg>
